<?xml version="1.0" encoding="UTF-8"?>
<!DOCTYPE svg PUBLIC "-//W3C//DTD SVG 1.1//EN" "http://www.w3.org/Graphics/SVG/1.1/DTD/svg11.dtd">
<svg xmlns="http://www.w3.org/2000/svg" version="1.1" width="500px" height="499px" style="shape-rendering:geometricPrecision; text-rendering:geometricPrecision; image-rendering:optimizeQuality; fill-rule:evenodd; clip-rule:evenodd" xmlns:xlink="http://www.w3.org/1999/xlink">
<g><path style="opacity:1" fill="#d50f05" d="M 233.5,-0.5 C 244.167,-0.5 254.833,-0.5 265.5,-0.5C 305.559,2.29669 342.893,13.9634 377.5,34.5C 377.821,36.0481 378.821,36.7148 380.5,36.5C 406.254,51.9179 428.254,71.5845 446.5,95.5C 446.427,97.0269 447.094,98.0269 448.5,98.5C 450.853,100.86 452.853,103.527 454.5,106.5C 454.427,108.027 455.094,109.027 456.5,109.5C 456.427,111.027 457.094,112.027 458.5,112.5C 458.427,114.027 459.094,115.027 460.5,115.5C 461.338,115.842 461.672,116.508 461.5,117.5C 461.427,119.027 462.094,120.027 463.5,120.5C 484.271,153.909 496.271,190.243 499.5,229.5C 499.5,242.833 499.5,256.167 499.5,269.5C 488.543,362.262 441.876,430.429 359.5,474C 331.434,487.18 302.101,495.347 271.5,498.5C 256.833,498.5 242.167,498.5 227.5,498.5C 212.236,496.9 197.236,493.9 182.5,489.5C 180.485,488.076 178.152,487.41 175.5,487.5C 174.041,487.567 172.708,487.234 171.5,486.5C 170.365,484.787 168.698,484.12 166.5,484.5C 153.724,480.776 141.724,475.443 130.5,468.5C 130.027,467.094 129.027,466.427 127.5,466.5C 106.162,455.324 87.1616,440.991 70.5,423.5C 70.5,421.5 69.5,420.5 67.5,420.5C 26.8686,376.548 4.2019,324.548 -0.5,264.5C -0.5,254.167 -0.5,243.833 -0.5,233.5C 0.791202,215.468 4.12454,197.801 9.5,180.5C 10.9238,178.485 11.5905,176.152 11.5,173.5C 15.1579,160.532 20.1579,148.199 26.5,136.5C 27.9063,136.027 28.573,135.027 28.5,133.5C 34.6724,120.475 42.339,108.475 51.5,97.5C 52.9063,97.0269 53.573,96.0269 53.5,94.5C 67.2658,76.7321 83.2658,61.3987 101.5,48.5C 103.404,48.2624 104.738,47.2624 105.5,45.5C 107.147,43.6736 109.147,42.3403 111.5,41.5C 113.027,41.573 114.027,40.9063 114.5,39.5C 119.665,35.4137 125.332,32.0804 131.5,29.5C 133.027,29.573 134.027,28.9063 134.5,27.5C 165.689,11.4553 198.689,2.12193 233.5,-0.5 Z M 297.5,63.5 C 298.93,64.5375 300.597,65.2041 302.5,65.5C 323.654,71.9125 343.321,81.2458 361.5,93.5C 361.973,94.9063 362.973,95.573 364.5,95.5C 364.833,96.5 365.5,97.1667 366.5,97.5C 366.973,98.9063 367.973,99.573 369.5,99.5C 373.141,102.805 376.808,106.138 380.5,109.5C 381.262,111.262 382.596,112.262 384.5,112.5C 437.603,169.817 453.103,236.15 431,311.5C 423.659,331.859 413.492,350.526 400.5,367.5C 399.094,367.973 398.427,368.973 398.5,370.5C 396.833,371.5 395.5,372.833 394.5,374.5C 393.094,374.973 392.427,375.973 392.5,377.5C 387.167,382.167 382.167,387.167 377.5,392.5C 374.911,393.419 372.911,395.086 371.5,397.5C 369.251,398.08 367.585,399.413 366.5,401.5C 364.973,401.427 363.973,402.094 363.5,403.5C 360.883,404.786 358.55,406.453 356.5,408.5C 354.973,408.427 353.973,409.094 353.5,410.5C 339.312,418.595 324.645,425.595 309.5,431.5C 305.838,431.723 302.505,432.723 299.5,434.5C 294.74,435.191 290.074,436.191 285.5,437.5C 281.295,437.717 277.295,438.383 273.5,439.5C 229.066,444.282 187.733,435.282 149.5,412.5C 148.71,411.599 147.71,410.932 146.5,410.5C 132.692,401.592 120.026,391.259 108.5,379.5C 108.262,377.596 107.262,376.262 105.5,375.5C 104.5,373.833 103.167,372.5 101.5,371.5C 101.573,369.973 100.906,368.973 99.5,368.5C 98.396,366.611 97.0627,364.945 95.5,363.5C 95.573,361.973 94.9063,360.973 93.5,360.5C 92.4884,359.128 91.4884,357.795 90.5,356.5C 90.573,354.973 89.9063,353.973 88.5,353.5C 88.573,351.973 87.9063,350.973 86.5,350.5C 86.573,348.973 85.9063,347.973 84.5,347.5C 83.0078,343.182 81.0078,339.182 78.5,335.5C 78.573,333.973 77.9063,332.973 76.5,332.5C 45.6412,260.369 53.4746,192.702 100,129.5C 152.862,69.2681 218.695,47.2681 297.5,63.5 Z"/></g>
<g><path style="opacity:0.788" fill="#f08980" d="M 134.5,27.5 C 134.027,28.9063 133.027,29.573 131.5,29.5C 131.973,28.0937 132.973,27.427 134.5,27.5 Z"/></g>
<g><path style="opacity:0.949" fill="#f48f7d" d="M 377.5,34.5 C 378.71,34.9321 379.71,35.5987 380.5,36.5C 378.821,36.7148 377.821,36.0481 377.5,34.5 Z"/></g>
<g><path style="opacity:0.765" fill="#f08b82" d="M 114.5,39.5 C 114.027,40.9063 113.027,41.573 111.5,41.5C 111.973,40.0937 112.973,39.427 114.5,39.5 Z"/></g>
<g><path style="opacity:0.659" fill="#f28f89" d="M 105.5,45.5 C 104.738,47.2624 103.404,48.2624 101.5,48.5C 102.262,46.7376 103.596,45.7376 105.5,45.5 Z"/></g>
<g><path style="opacity:0.933" fill="#f38e80" d="M 297.5,63.5 C 299.698,63.1201 301.365,63.7868 302.5,65.5C 300.597,65.2041 298.93,64.5375 297.5,63.5 Z"/></g>
<g><path style="opacity:0.561" fill="#f0887f" d="M 361.5,93.5 C 363.027,93.427 364.027,94.0937 364.5,95.5C 362.973,95.573 361.973,94.9063 361.5,93.5 Z"/></g>
<g><path style="opacity:0.8" fill="#f38b80" d="M 53.5,94.5 C 53.573,96.0269 52.9063,97.0269 51.5,97.5C 51.427,95.9731 52.0937,94.9731 53.5,94.5 Z"/></g>
<g><path style="opacity:0.686" fill="#f69c96" d="M 366.5,97.5 C 368.027,97.427 369.027,98.0937 369.5,99.5C 367.973,99.573 366.973,98.9063 366.5,97.5 Z"/></g>
<g><path style="opacity:0.573" fill="#f08980" d="M 446.5,95.5 C 447.906,95.9731 448.573,96.9731 448.5,98.5C 447.094,98.0269 446.427,97.0269 446.5,95.5 Z"/></g>
<g><path style="opacity:0.88" fill="#e24d44" d="M 220.5,99.5 C 239.833,99.5 259.167,99.5 278.5,99.5C 278.5,172.5 278.5,245.5 278.5,318.5C 259.167,318.5 239.833,318.5 220.5,318.5C 220.5,245.5 220.5,172.5 220.5,99.5 Z"/></g>
<g><path style="opacity:1" fill="#d30000" d="M 221.5,100.5 C 240.167,100.5 258.833,100.5 277.5,100.5C 277.5,172.833 277.5,245.167 277.5,317.5C 258.833,317.5 240.167,317.5 221.5,317.5C 221.5,245.167 221.5,172.833 221.5,100.5 Z"/></g>
<g><path style="opacity:0.514" fill="#f1918b" d="M 454.5,106.5 C 455.906,106.973 456.573,107.973 456.5,109.5C 455.094,109.027 454.427,108.027 454.5,106.5 Z"/></g>
<g><path style="opacity:0.659" fill="#f6a19b" d="M 380.5,109.5 C 382.404,109.738 383.738,110.738 384.5,112.5C 382.596,112.262 381.262,111.262 380.5,109.5 Z"/></g>
<g><path style="opacity:0.522" fill="#f08f88" d="M 456.5,109.5 C 457.906,109.973 458.573,110.973 458.5,112.5C 457.094,112.027 456.427,111.027 456.5,109.5 Z"/></g>
<g><path style="opacity:0.482" fill="#f1958e" d="M 458.5,112.5 C 459.906,112.973 460.573,113.973 460.5,115.5C 459.094,115.027 458.427,114.027 458.5,112.5 Z"/></g>
<g><path style="opacity:0.592" fill="#f08881" d="M 461.5,117.5 C 462.906,117.973 463.573,118.973 463.5,120.5C 462.094,120.027 461.427,119.027 461.5,117.5 Z"/></g>
<g><path style="opacity:0.365" fill="#f4a6a1" d="M 28.5,133.5 C 28.573,135.027 27.9063,136.027 26.5,136.5C 26.427,134.973 27.0937,133.973 28.5,133.5 Z"/></g>
<g><path style="opacity:0.882" fill="#ee7f74" d="M 11.5,173.5 C 11.5905,176.152 10.9238,178.485 9.5,180.5C 9.40953,177.848 10.0762,175.515 11.5,173.5 Z"/></g>
<g><path style="opacity:0.349" fill="#f5a8a2" d="M 76.5,332.5 C 77.9063,332.973 78.573,333.973 78.5,335.5C 77.0937,335.027 76.427,334.027 76.5,332.5 Z"/></g>
<g><path style="opacity:0.888" fill="#e4554c" d="M 220.5,337.5 C 239.833,337.5 259.167,337.5 278.5,337.5C 278.5,358.167 278.5,378.833 278.5,399.5C 259.167,399.5 239.833,399.5 220.5,399.5C 220.5,378.833 220.5,358.167 220.5,337.5 Z"/></g>
<g><path style="opacity:1" fill="#d30000" d="M 221.5,338.5 C 240.167,338.5 258.833,338.5 277.5,338.5C 277.5,358.5 277.5,378.5 277.5,398.5C 258.833,398.5 240.167,398.5 221.5,398.5C 221.5,378.5 221.5,358.5 221.5,338.5 Z"/></g>
<g><path style="opacity:0.588" fill="#f18881" d="M 84.5,347.5 C 85.9063,347.973 86.573,348.973 86.5,350.5C 85.0937,350.027 84.427,349.027 84.5,347.5 Z"/></g>
<g><path style="opacity:0.541" fill="#f18b83" d="M 88.5,353.5 C 89.9063,353.973 90.573,354.973 90.5,356.5C 89.0937,356.027 88.427,355.027 88.5,353.5 Z"/></g>
<g><path style="opacity:0.757" fill="#f5968e" d="M 93.5,360.5 C 94.9063,360.973 95.573,361.973 95.5,363.5C 94.0937,363.027 93.427,362.027 93.5,360.5 Z"/></g>
<g><path style="opacity:0.725" fill="#f5978f" d="M 400.5,367.5 C 400.573,369.027 399.906,370.027 398.5,370.5C 398.427,368.973 399.094,367.973 400.5,367.5 Z"/></g>
<g><path style="opacity:0.788" fill="#f49087" d="M 99.5,368.5 C 100.906,368.973 101.573,369.973 101.5,371.5C 100.094,371.027 99.427,370.027 99.5,368.5 Z"/></g>
<g><path style="opacity:0.655" fill="#f59f9a" d="M 394.5,374.5 C 394.573,376.027 393.906,377.027 392.5,377.5C 392.427,375.973 393.094,374.973 394.5,374.5 Z"/></g>
<g><path style="opacity:0.769" fill="#f59991" d="M 105.5,375.5 C 107.262,376.262 108.262,377.596 108.5,379.5C 106.738,378.738 105.738,377.404 105.5,375.5 Z"/></g>
<g><path style="opacity:0.914" fill="#ec6f60" d="M 377.5,392.5 C 376.089,394.914 374.089,396.581 371.5,397.5C 372.911,395.086 374.911,393.419 377.5,392.5 Z"/></g>
<g><path style="opacity:0.733" fill="#f18a82" d="M 366.5,401.5 C 366.027,402.906 365.027,403.573 363.5,403.5C 363.973,402.094 364.973,401.427 366.5,401.5 Z"/></g>
<g><path style="opacity:0.808" fill="#f1887f" d="M 356.5,408.5 C 356.027,409.906 355.027,410.573 353.5,410.5C 353.973,409.094 354.973,408.427 356.5,408.5 Z"/></g>
<g><path style="opacity:0.957" fill="#f59180" d="M 146.5,410.5 C 147.71,410.932 148.71,411.599 149.5,412.5C 147.821,412.715 146.821,412.048 146.5,410.5 Z"/></g>
<g><path style="opacity:0.749" fill="#f7a39b" d="M 67.5,420.5 C 69.5,420.5 70.5,421.5 70.5,423.5C 69.1667,422.833 68.1667,421.833 67.5,420.5 Z"/></g>
<g><path style="opacity:0.953" fill="#eb6f61" d="M 309.5,431.5 C 306.495,433.277 303.162,434.277 299.5,434.5C 302.505,432.723 305.838,431.723 309.5,431.5 Z"/></g>
<g><path style="opacity:1" fill="#ec7669" d="M 285.5,437.5 C 281.79,439.136 277.79,439.802 273.5,439.5C 277.295,438.383 281.295,437.717 285.5,437.5 Z"/></g>
<g><path style="opacity:0.553" fill="#ef8881" d="M 127.5,466.5 C 129.027,466.427 130.027,467.094 130.5,468.5C 128.973,468.573 127.973,467.906 127.5,466.5 Z"/></g>
<g><path style="opacity:0.898" fill="#f18c80" d="M 166.5,484.5 C 168.698,484.12 170.365,484.787 171.5,486.5C 169.597,486.204 167.93,485.537 166.5,484.5 Z"/></g>
<g><path style="opacity:0.886" fill="#ef8378" d="M 175.5,487.5 C 178.152,487.41 180.485,488.076 182.5,489.5C 179.848,489.59 177.515,488.924 175.5,487.5 Z"/></g>
</svg>
